<svg width="164" height="192" viewBox="0 0 164 192" fill="none" xmlns="http://www.w3.org/2000/svg">
<path fill-rule="evenodd" clip-rule="evenodd" d="M164 73.5C164 114.093 131.093 147 90.5 147C90.3851 147 90.2703 147 90.1555 146.999C90.1037 147 90.0519 147 90 147H70L0 192V132.746C0.00973991 132.821 0.0200134 132.895 0.0308134 132.969C0.0103753 132.649 0 132.326 0 132V15C0 6.71573 6.71573 0 15 0H90C90.0519 0 90.1038 0.000263759 90.1556 0.000790011C90.2703 0.000263527 90.3851 0 90.5 0C131.093 0 164 32.9071 164 73.5ZM14.3572 146.986C14.4055 146.992 14.4531 146.996 14.5 147H15C14.7847 147 14.5704 146.995 14.3572 146.986Z" fill="#5F30F8"/>
<path fill-rule="evenodd" clip-rule="evenodd" d="M65.3025 36.8333C61.0411 36.8333 57.1064 39.1167 54.9921 42.8167L47.1016 56.625H42.5C41.6255 56.625 40.9166 57.3339 40.9166 58.2083V60.09C40.9166 61.5432 41.9056 62.8099 43.3153 63.1622L43.4091 63.1855C41.7613 66.6071 41.1284 70.4404 41.6018 74.2281L44.4721 97.1904C44.9673 101.152 48.3351 104.125 52.3276 104.125H52.7916C57.1639 104.125 60.7083 100.581 60.7083 96.2083H100.292C100.292 100.581 103.836 104.125 108.208 104.125H108.672C112.665 104.125 116.033 101.152 116.528 97.1904L119.398 74.2281C119.872 70.4404 119.239 66.6071 117.591 63.1855L117.685 63.1622C119.095 62.8099 120.083 61.5432 120.083 60.09V58.2083C120.083 57.3339 119.374 56.625 118.5 56.625H113.898L106.008 42.8167C103.894 39.1167 99.9587 36.8333 95.6976 36.8333H65.3025ZM105.92 58.6194L99.1342 46.7444C98.4296 45.5111 97.1178 44.75 95.6976 44.75H65.3025C63.882 44.75 62.5705 45.5111 61.8657 46.7444L55.08 58.6194C53.5736 61.2582 55.4781 64.5417 58.5168 64.5417H102.483C105.523 64.5417 107.428 61.2582 105.92 58.6194ZM52.7916 80.5302V77.7554C52.7916 76.2567 54.3925 75.302 55.7112 76.0141L66.5675 81.8764C68.0441 82.674 67.4287 84.9188 65.7519 84.8519L56.5917 84.4853C54.4689 84.4002 52.7916 82.6546 52.7916 80.5302ZM108.208 77.7554V80.5302C108.208 82.6546 106.531 84.4002 104.408 84.4853L95.2479 84.8519C93.5712 84.9188 92.9556 82.674 94.4325 81.8764L105.289 76.0141C106.608 75.302 108.208 76.2567 108.208 77.7554Z" fill="white"/>
</svg>
